<svg xmlns="http://www.w3.org/2000/svg" xmlns:xlink="http://www.w3.org/1999/xlink" width="366" height="243.337" viewBox="0 0 366 243.337">
  <defs>
    <filter id="Rectangle_270" x="110" y="79.193" width="256" height="74" filterUnits="userSpaceOnUse">
      <feOffset dy="6" input="SourceAlpha"/>
      <feGaussianBlur stdDeviation="3" result="blur"/>
      <feFlood flood-opacity="0.161"/>
      <feComposite operator="in" in2="blur"/>
      <feComposite in="SourceGraphic"/>
    </filter>
  </defs>
  <g id="Group_242" data-name="Group 242" transform="translate(-727 -107.807)">
    <g id="Wall_post-amico" data-name="Wall post-amico" transform="translate(667.93 81.746)">
      <g id="freepik--Device--inject-2" transform="translate(59.07 26.061)">
        <g id="freepik--device--inject-2-2" data-name="freepik--device--inject-2">
          <path id="Path_275" data-name="Path 275" d="M196.352,318.134l22.809-13.187c2.35-1.358,3.525-3.133,3.525-4.916v-3.173l-23.664-13.343a5.013,5.013,0,0,1-2.272-3.917V251.47L156.93,274.488V302.6a5.027,5.027,0,0,0,2.272,3.917l20.132,11.594C184.028,320.849,191.652,320.849,196.352,318.134Z" transform="translate(-93.047 -105.381)" fill="#e66435"/>
          <g id="Group_215" data-name="Group 215" transform="translate(63.883 146.089)" opacity="0.6">
            <path id="Path_276" data-name="Path 276" d="M196.352,318.134l22.809-13.187c2.35-1.358,3.525-3.133,3.525-4.916v-3.173l-23.664-13.343a5.013,5.013,0,0,1-2.272-3.917V251.47L156.93,274.488V302.6a5.027,5.027,0,0,0,2.272,3.917l20.132,11.594C184.028,320.849,191.652,320.849,196.352,318.134Z" transform="translate(-156.93 -251.47)"/>
          </g>
          <path id="Path_277" data-name="Path 277" d="M166.49,317.49v3.16l-7.3-4.211a5.007,5.007,0,0,1-2.265-3.917V284.393L164.505,280c.157,1.958.333,3.917.49,5.875l-5.327,3.081v21.967a4.981,4.981,0,0,0,2.272,3.917Z" transform="translate(-93.044 -115.286)" opacity="0.3"/>
          <path id="Path_278" data-name="Path 278" d="M161.13,303.451a5.014,5.014,0,0,0,2.272,3.917l17.377,10.014c4.7,2.709,12.325,2.716,17.032,0l22.848-13.187c4.707-2.716,4.707-7.115,0-9.831L203.275,284.35A5.007,5.007,0,0,1,201,280.433V258.46l-39.821,23.018Z" transform="translate(-94.505 -107.808)" fill="#e66435"/>
          <path id="Path_279" data-name="Path 279" d="M161.13,303.451a5.014,5.014,0,0,0,2.272,3.917l17.377,10.014c4.7,2.709,12.325,2.716,17.032,0l22.848-13.187c4.707-2.716,4.707-7.115,0-9.831L203.275,284.35A5.007,5.007,0,0,1,201,280.433V258.46l-39.821,23.018Z" transform="translate(-94.505 -107.808)" opacity="0.3"/>
          <path id="Path_280" data-name="Path 280" d="M207.874,287.033h0l-4.622-2.67a5.007,5.007,0,0,1-2.272-3.917V258.46L161.16,281.478v21.973a5.014,5.014,0,0,0,2.272,3.917l4.57,2.611Z" transform="translate(-94.516 -107.808)" opacity="0.5"/>
          <path id="Path_281" data-name="Path 281" d="M239.32,321v3.173c0,1.782-1.182,3.551-3.525,4.916l-22.848,13.18a17.123,17.123,0,0,1-8.127,2.017v-3.159a17.124,17.124,0,0,0,8.127-2.017L235.8,325.915C238.139,324.571,239.32,322.789,239.32,321Z" transform="translate(-109.675 -129.522)" fill="#e66435"/>
          <path id="Path_282" data-name="Path 282" d="M239.32,321v3.173c0,1.782-1.182,3.551-3.525,4.916l-22.848,13.18a17.123,17.123,0,0,1-8.127,2.017v-3.159a17.124,17.124,0,0,0,8.127-2.017L235.8,325.915C238.139,324.571,239.32,322.789,239.32,321Z" transform="translate(-109.675 -129.522)" opacity="0.5"/>
          <path id="Path_283" data-name="Path 283" d="M61.737,249.017a6.13,6.13,0,0,0,5.5-.1L221.3,160.394a6.245,6.245,0,0,0,2.84-4.892V31.456a6.049,6.049,0,0,0-2.67-4.782,6.1,6.1,0,0,0-5.5.1L61.913,115.3a6.219,6.219,0,0,0-2.833,4.886V244.228a6.049,6.049,0,0,0,2.657,4.788Z" transform="translate(-59.073 -26.064)" fill="#e66435"/>
          <path id="Path_284" data-name="Path 284" d="M70.07,250.711l154.06-88.518a6.238,6.238,0,0,0,2.84-4.892V33.272c0-1.8-1.273-2.534-2.84-1.631L70.07,120.159a6.238,6.238,0,0,0-2.84,4.892V249.08C67.23,250.88,68.5,251.614,70.07,250.711Z" transform="translate(-61.903 -27.864)" fill="#e66435"/>
          <path id="Path_285" data-name="Path 285" d="M70.07,250.711l154.06-88.518a6.238,6.238,0,0,0,2.84-4.892V33.272c0-1.8-1.273-2.534-2.84-1.631L70.07,120.159a6.238,6.238,0,0,0-2.84,4.892V249.08C67.23,250.88,68.5,251.614,70.07,250.711Z" transform="translate(-61.903 -27.864)" opacity="0.5"/>
          <path id="Path_286" data-name="Path 286" d="M66.819,365.348a6.1,6.1,0,0,1-5.085-.1,6.091,6.091,0,0,1-2.663-4.824V349.08l5.32,3.081v11.346C64.39,365.158,65.441,365.909,66.819,365.348Z" transform="translate(-59.07 -139.271)" fill="#e66435"/>
          <path id="Path_287" data-name="Path 287" d="M66.819,365.348a6.1,6.1,0,0,1-5.085-.1,6.091,6.091,0,0,1-2.663-4.824V349.08l5.32,3.081v11.346C64.39,365.158,65.441,365.909,66.819,365.348Z" transform="translate(-59.07 -139.271)" opacity="0.5"/>
          <path id="Path_288" data-name="Path 288" d="M67.22,304.737v11.346c0,1.808,1.306,2.539,2.84,1.639l154.06-88.944a6.28,6.28,0,0,0,2.84-4.916V212.49Z" transform="translate(-61.9 -91.847)" fill="#e66435"/>
          <path id="Path_289" data-name="Path 289" d="M67.23,304.711v11.372c0,1.808,1.306,2.539,2.84,1.639l154.06-88.944a6.28,6.28,0,0,0,2.84-4.916V212.49Z" transform="translate(-61.903 -91.847)" opacity="0.3"/>
          <path id="Path_290" data-name="Path 290" d="M75.38,231.179V131.425a3.729,3.729,0,0,1,1.7-2.928L222.762,44.875c.94-.539,1.7-.1,1.7.974v99.734a3.735,3.735,0,0,1-1.7,2.934L77.09,232.152C76.144,232.691,75.38,232.25,75.38,231.179Z" transform="translate(-64.733 -32.513)" fill="#e66435"/>
          <path id="Path_291" data-name="Path 291" d="M75.38,231.179V131.425a3.729,3.729,0,0,1,1.7-2.928L222.762,44.875c.94-.539,1.7-.1,1.7.974v99.734a3.735,3.735,0,0,1-1.7,2.934L77.09,232.152C76.144,232.691,75.38,232.25,75.38,231.179Z" transform="translate(-64.733 -32.513)" fill="#263238"/>
          <path id="Path_292" data-name="Path 292" d="M65.232,169.7a6.038,6.038,0,0,0-.842,2.8V288.814l-5.32-3.081V169.43a5.8,5.8,0,0,1,.836-2.8Z" transform="translate(-59.07 -75.924)" opacity="0.7"/>
          <path id="Path_293" data-name="Path 293" d="M224.548,31.008c-.2-1.462-1.384-1.991-2.814-1.175L67.681,118.784a5.836,5.836,0,0,0-2,2.109l-5.327-3.075a5.875,5.875,0,0,1,2.011-2.109l154.06-88.937a6.084,6.084,0,0,1,5.5-.1,6.117,6.117,0,0,1,2.624,4.341Z" transform="translate(-59.514 -26.061)" opacity="0.3"/>
        </g>
      </g>
      <g id="freepik--Window--inject-2" transform="translate(80.286 44.632)">
        <g id="freepik--window--inject-2-2" data-name="freepik--window--inject-2" transform="translate(0)">
          <path id="Path_294" data-name="Path 294" d="M92.908,154.557a3.04,3.04,0,0,1-1.3-2.4V141.123a3.143,3.143,0,0,1,1.409-2.448L237.18,54.953A2.623,2.623,0,0,1,239.9,54.9a2.654,2.654,0,0,1,1.316,2.4V68.329a3.1,3.1,0,0,1-1.4,2.448L95.628,154.5A2.984,2.984,0,0,1,92.908,154.557Z" transform="translate(-91.584 -54.522)" fill="#e66435"/>
          <path id="Path_295" data-name="Path 295" d="M241.413,57.056c-.1-.731-.688-1-1.389-.588L95.838,140.2a3,3,0,0,0-.993,1.058l-2.635-1.56a2.937,2.937,0,0,1,.993-1.058l144.185-83.7a2.584,2.584,0,0,1,2.631-.134A2.613,2.613,0,0,1,241.413,57.056Z" transform="translate(-91.792 -54.51)" fill="#fff" opacity="0.4"/>
          <path id="Path_296" data-name="Path 296" d="M95.651,299.264a2.369,2.369,0,0,1-1.11.339,2.781,2.781,0,0,1-1.625-.287,3.016,3.016,0,0,1-1.306-2.4v-84.1l2.657,1.534v84.1c0,.653.32,1.012.783,1.012A1.357,1.357,0,0,0,95.651,299.264Z" transform="translate(-91.584 -110.533)" fill="#f0f0f0"/>
          <path id="Path_297" data-name="Path 297" d="M94.638,186.574a2.872,2.872,0,0,0-.411,1.39v16.744l-2.657-1.534V186.261a2.729,2.729,0,0,1,.059-.346,3.154,3.154,0,0,1,.353-.875Z" transform="translate(-91.57 -100.359)" opacity="0.1"/>
          <path id="Path_298" data-name="Path 298" d="M242.6,58.223v7.553L139.21,125.834c-.772.45-1.4.085-1.4-.816v-2.859c0-.9-.649-1.266-1.408-.816l-34.095,19.8a3.124,3.124,0,0,0-1.408,2.448v2.859a3.137,3.137,0,0,1-1.4,2.448L95.6,151.143v-7.559a3.137,3.137,0,0,1,1.4-2.448L241.2,57.407C241.973,56.957,242.6,57.323,242.6,58.223Z" transform="translate(-92.969 -55.449)" fill="#e66435"/>
          <path id="Path_299" data-name="Path 299" d="M242.617,163.062a3.108,3.108,0,0,1-1.4,2.44L97.042,248.731c-.772.448-1.4.084-1.4-.811V155.184l3.894-2.232c.772-.448,2.032-7.262,2.81-7.71l33.523-19.358c.779-.448,2.6,4.588,3.382,4.14l103.393-59.7v92.736Z" transform="translate(-92.983 -59.999)" fill="#fafafa"/>
          <path id="Path_300" data-name="Path 300" d="M241.954,71.453v91.613a2.459,2.459,0,0,1-1.077,1.875L96.7,248.176a.649.649,0,0,1-.3.1c-.13,0-.13-.337-.13-.357V155.557l3.544-2.044c.565-.324.915-1.415,1.7-4.225a20.765,20.765,0,0,1,1.162-3.511l33.225-19.2a15.16,15.16,0,0,1,1.058,1.687c.9,1.59,1.408,2.421,2.142,2.421a.831.831,0,0,0,.428-.117l102.42-59.133m-105.795,55h0m-33.452,19.3h0m139.9-75.4-103.393,59.7a.188.188,0,0,1-.1,0c-.785,0-2.382-4.192-3.174-4.192a.208.208,0,0,0-.1,0L102.3,145.2c-.779.448-2.038,7.262-2.81,7.71L95.6,155.142v92.788c0,.649.318,1.006.779,1.006a1.26,1.26,0,0,0,.649-.195L241.2,165.512a3.109,3.109,0,0,0,1.4-2.44Z" transform="translate(-92.969 -60.003)" fill="#e0e0e0"/>
          <path id="Path_301" data-name="Path 301" d="M133.14,257.568l19.323-11.156c.522-.3.94-.059.94.542V279.5a2.076,2.076,0,0,1-.94,1.632L133.14,292.283c-.522.3-.94.052-.94-.548V259.2A2.076,2.076,0,0,1,133.14,257.568Z" transform="translate(-105.851 -122.151)" fill="#f0f0f0"/>
          <path id="Path_302" data-name="Path 302" d="M138.55,262.854l12.26-7.076c.516-.3.94-.085.94.477a2.03,2.03,0,0,1-.94,1.567L138.55,264.9c-.516.3-.94.085-.94-.477A2.037,2.037,0,0,1,138.55,262.854Z" transform="translate(-107.742 -125.112)" fill="#e0e0e0"/>
          <path id="Path_303" data-name="Path 303" d="M137.61,274.023v.738c0,.359.255.5.568.326l.653-.372a1.234,1.234,0,0,0,.568-.979V273c0-.366-.255-.509-.568-.326l-.653.366A1.253,1.253,0,0,0,137.61,274.023Z" transform="translate(-107.727 -131.033)" fill="#e66435"/>
          <path id="Path_304" data-name="Path 304" d="M143,268.637c0,.561.424.777.947.477l8.721-5.04a2.024,2.024,0,0,0,.94-1.56c0-.568-.424-.777-.94-.477l-8.721,5.033A2.017,2.017,0,0,0,143,268.637Z" transform="translate(-109.63 -127.299)" fill="#e0e0e0"/>
          <path id="Path_305" data-name="Path 305" d="M137.61,280.243v.738c0,.359.255.5.568.326l.653-.372a1.247,1.247,0,0,0,.568-.979v-.731c0-.366-.255-.509-.568-.326l-.653.366A1.253,1.253,0,0,0,137.61,280.243Z" transform="translate(-107.727 -133.216)" fill="#e66435"/>
          <path id="Path_306" data-name="Path 306" d="M143,274.9c0,.561.424.777.947.477l8.721-5.04a2.024,2.024,0,0,0,.94-1.56c0-.568-.424-.777-.94-.477l-8.721,5.033A2.017,2.017,0,0,0,143,274.9Z" transform="translate(-109.63 -129.497)" fill="#e0e0e0"/>
          <path id="Path_307" data-name="Path 307" d="M137.61,286.531v.731c0,.366.255.509.568.326l.653-.366a1.253,1.253,0,0,0,.568-.979v-.738c0-.359-.255-.5-.568-.326l-.653.372A1.247,1.247,0,0,0,137.61,286.531Z" transform="translate(-107.727 -135.422)" fill="#e66435"/>
          <path id="Path_308" data-name="Path 308" d="M143,281.14c0,.568.424.777.947.477l8.721-5.033a2.024,2.024,0,0,0,.94-1.56c0-.568-.424-.777-.94-.477l-8.721,5.033A2.017,2.017,0,0,0,143,281.14Z" transform="translate(-109.63 -131.69)" fill="#e0e0e0"/>
          <path id="Path_309" data-name="Path 309" d="M137.61,292.784v.738c0,.359.255.509.568.326l.653-.366a1.253,1.253,0,0,0,.568-.979v-.718c0-.359-.255-.509-.568-.326l-.653.366a1.253,1.253,0,0,0-.568.96Z" transform="translate(-107.727 -137.809)" fill="#e66435"/>
          <path id="Path_310" data-name="Path 310" d="M143,287.411c0,.561.424.777.947.477l8.734-5.046a2.037,2.037,0,0,0,.94-1.567c0-.561-.424-.777-.94-.476l-8.721,5.033A2.03,2.03,0,0,0,143,287.411Z" transform="translate(-109.63 -133.885)" fill="#e0e0e0"/>
          <path id="Path_311" data-name="Path 311" d="M138.44,297.313l12.253-7.076c.522-.3.947-.091.947.477a2.017,2.017,0,0,1-.947,1.56L138.44,299.35c-.522.3-.947.091-.94-.477a2.011,2.011,0,0,1,.94-1.56Z" transform="translate(-107.704 -137.365)" fill="#e0e0e0"/>
          <path id="Path_312" data-name="Path 312" d="M137.49,308.473v.738c0,.359.255.509.568.326l.653-.366a1.247,1.247,0,0,0,.561-.979v-.738c0-.359-.255-.509-.561-.326l-.653.366a1.253,1.253,0,0,0-.568.979Z" transform="translate(-107.685 -143.25)" fill="#e66435"/>
          <path id="Path_313" data-name="Path 313" d="M142.91,303.088c0,.561.424.777.94.477l8.721-5.033a2.03,2.03,0,0,0,.947-1.567c0-.561-.424-.777-.947-.477l-8.721,5.033A2.037,2.037,0,0,0,142.91,303.088Z" transform="translate(-109.599 -139.536)" fill="#e0e0e0"/>
          <path id="Path_314" data-name="Path 314" d="M311,65.871c.986-.568,1.782-.1,1.782,1.031A3.917,3.917,0,0,1,311,69.984c-.979.561-1.776.1-1.776-1.031A3.917,3.917,0,0,1,311,65.871Z" transform="translate(-167.988 -58.37)" fill="#fff"/>
          <path id="Path_315" data-name="Path 315" d="M301.186,71.54c.986-.568,1.782-.111,1.782,1.025a3.917,3.917,0,0,1-1.782,3.107c-.979.568-1.776.1-1.776-1.025A3.917,3.917,0,0,1,301.186,71.54Z" transform="translate(-164.582 -60.338)" fill="#fff"/>
          <ellipse id="Ellipse_59" data-name="Ellipse 59" cx="2.513" cy="1.449" rx="2.513" ry="1.449" transform="translate(127.694 18.403) rotate(-60)" fill="#fff"/>
          <path id="Path_316" data-name="Path 316" d="M242.617,70.33v9.191L95.64,164.881V155.69l2.888-1.684c.772-.45,1.032-1.136,1.4-2.448l.98-3.421a3.619,3.619,0,0,1,1.408-2.448l33.523-19.473c.779-.45,1.389-.5,1.947.49l1.2,2.193c.441.764.649,1.214,1.434.764Z" transform="translate(-92.983 -60.003)" fill="#e6e6e6"/>
          <path id="Path_317" data-name="Path 317" d="M94.227,200.278v9.191l-2.657-1.534V198.75Z" transform="translate(-91.57 -105.145)" fill="#e0e0e0"/>
          <path id="Path_318" data-name="Path 318" d="M104.046,201.7l-2.22,1.306.849-1.625a.418.418,0,0,0,0-.4c-.065-.078-.183,0-.255.124l-1.2,2.311h0a.134.134,0,0,1-.033.085h0a.373.373,0,0,0,0,.118.248.248,0,0,0,0,.1h0a.365.365,0,0,0,.033.052h0l1.2.92a.1.1,0,0,0,.118,0,.339.339,0,0,0,.137-.17.359.359,0,0,0,0-.379l-.849-.653,2.22-1.306a.464.464,0,0,0,.183-.379C104.229,201.721,104.144,201.636,104.046,201.7Z" transform="translate(-94.907 -105.897)" fill="#455a64" opacity="0.5"/>
          <path id="Path_319" data-name="Path 319" d="M108.316,199.117l2.22-1.306-.849-.653c-.072-.052-.078-.222,0-.379s.176-.222.248-.17l1.208.927h0a.085.085,0,0,1,0,.046h0a.4.4,0,0,1,0,.1.8.8,0,0,1,0,.124h0a.453.453,0,0,1,0,.085h0l-1.208,2.317a.313.313,0,0,1-.117.137.091.091,0,0,1-.131,0,.411.411,0,0,1,0-.4l.849-1.625-2.22,1.306c-.1.059-.176,0-.176-.17A.477.477,0,0,1,108.316,199.117Z" transform="translate(-97.323 -104.368)" fill="#455a64" opacity="0.5"/>
          <path id="Path_320" data-name="Path 320" d="M118.244,190.623c0-.131-.131-.111-.189.033l-.3.744c-.522-.059-1.149.45-1.573,1.345-.548,1.162-.548,2.539,0,3.068a.783.783,0,0,0,1,.059,2.722,2.722,0,0,0,.992-1.208.379.379,0,0,0,0-.392c-.065-.065-.183,0-.248.15-.411.868-1.077,1.253-1.488.855a2.239,2.239,0,0,1,0-2.291c.287-.614.712-.979,1.077-1.005l-.228.561c-.059.144,0,.281.085.222l.907-.594a.274.274,0,0,0,.1-.248Z" transform="translate(-99.972 -102.247)" fill="#455a64" opacity="0.5"/>
          <path id="Path_321" data-name="Path 321" d="M155.244,161.157l.809-1.71a.516.516,0,0,0,0-.535c-.1-.091-.248,0-.346.2l-.809,1.71-.809-.777c-.091-.091-.248,0-.346.2a.548.548,0,0,0,0,.535l.79.79-.809,1.717a.535.535,0,0,0,0,.529.144.144,0,0,0,.176,0,.516.516,0,0,0,.17-.209l.809-1.717.809.783a.137.137,0,0,0,.176,0,.476.476,0,0,0,.17-.209.516.516,0,0,0,0-.535Z" transform="translate(-113.358 -91.135)" fill="#455a64" opacity="0.5"/>
          <path id="Path_322" data-name="Path 322" d="M124.07,154.6v-2.859a3.125,3.125,0,0,1,1.407-2.448L243.137,80.9c.771-.45,1.4-.085,1.4.816v2.859a3.138,3.138,0,0,1-1.4,2.448l-117.66,68.394C124.673,155.865,124.07,155.5,124.07,154.6Z" transform="translate(-102.854 -63.605)" fill="#fafafa"/>
          <path id="Path_323" data-name="Path 323" d="M304.324,88.007a.346.346,0,0,1-.124,0,.385.385,0,0,1-.215-.424l.137-1.162-.542-.392a.379.379,0,0,1-.15-.32.653.653,0,0,1,.235-.49l.829-.653a.143.143,0,0,0,.033-.065l.372-1.221a.522.522,0,0,1,.418-.392.326.326,0,0,1,.326.2h0l.313.653.7-.268a.339.339,0,0,1,.379.085.529.529,0,0,1,0,.574l-.6,1.123v.072l.137,1.018a.653.653,0,0,1-.157.535.4.4,0,0,1-.326.131l-.653-.085-.731.934A.418.418,0,0,1,304.324,88.007Zm-.4-2.363.542.392a.418.418,0,0,1,.144.392l-.091.77.49-.62a.424.424,0,0,1,.372-.183l.653.085a.224.224,0,0,0,0-.078l-.144-1.018a.653.653,0,0,1,.072-.366l.529-.986-.542.209a.333.333,0,0,1-.431-.176l-.242-.516-.333,1.084a.653.653,0,0,1-.2.307l-.836.653A.15.15,0,0,0,303.926,85.644Zm2.089-1.789Z" transform="translate(-165.977 -64.363)" fill="#e0e0e0"/>
          <g id="Group_216" data-name="Group 216" transform="translate(142.86 13.676)" opacity="0.5">
            <path id="Path_324" data-name="Path 324" d="M312.2,78.737a.49.49,0,0,1-.242-.914l3.976-2.3a.49.49,0,1,1,.49.849l-3.975,2.3A.49.49,0,0,1,312.2,78.737Z" transform="translate(-311.714 -75.459)" fill="#455a64"/>
            <path id="Path_325" data-name="Path 325" d="M312.2,82.257a.49.49,0,0,1-.242-.914l3.976-2.3a.49.49,0,1,1,.49.849l-3.975,2.3A.562.562,0,0,1,312.2,82.257Z" transform="translate(-311.714 -76.682)" fill="#455a64"/>
            <path id="Path_326" data-name="Path 326" d="M312.2,85.779a.49.49,0,0,1-.242-.914l3.976-2.3a.483.483,0,0,1,.653.176.49.49,0,0,1-.176.653l-3.976,2.291a.5.5,0,0,1-.235.091Z" transform="translate(-311.714 -77.906)" fill="#455a64"/>
          </g>
          <path id="Path_327" data-name="Path 327" d="M95.636,169.77l-.006,9.178L242.6,93.608l.013-9.2Z" transform="translate(-92.98 -64.891)" fill="#455a64"/>
          <path id="Path_328" data-name="Path 328" d="M121,198.839v1.776c0,.366.255.509.568.326l22.2-12.827V185l-22.2,12.827A1.266,1.266,0,0,0,121,198.839Z" transform="translate(-101.788 -100.334)" fill="#fafafa"/>
          <path id="Path_329" data-name="Path 329" d="M158.9,182.329c.32-.183.574-.033.574.333v1.776a1.247,1.247,0,0,1-.574.986l-3,1.736v-3.114Z" transform="translate(-114.148 -99.338)" fill="#e66435"/>
          <path id="Path_330" data-name="Path 330" d="M159.24,185.4l-.333-.1a1.963,1.963,0,0,0,.052-.431.783.783,0,0,0-.307-.712.463.463,0,0,0-.483,0,1.7,1.7,0,0,0-.653,1.39.783.783,0,0,0,.307.718.411.411,0,0,0,.215.059.516.516,0,0,0,.274-.085,1.449,1.449,0,0,0,.542-.725l.333.1h.039a.124.124,0,0,0,.118-.085A.131.131,0,0,0,159.24,185.4Zm-1.071.653a.222.222,0,0,1-.242,0,.588.588,0,0,1-.183-.5,1.482,1.482,0,0,1,.548-1.175.281.281,0,0,1,.15-.046.183.183,0,0,1,.085,0,.574.574,0,0,1,.183.5,1.488,1.488,0,0,1-.542,1.208Z" transform="translate(-114.711 -99.975)" fill="#fafafa"/>
          <path id="Path_331" data-name="Path 331" d="M113.962,208.589l-1.514.894a1.253,1.253,0,0,0-.568.979v1.756c0,.366.255.509.568.326l1.514-.875a1.247,1.247,0,0,0,.568-.979v-1.756C114.53,208.556,114.276,208.406,113.962,208.589Z" transform="translate(-98.622 -108.551)" fill="#fafafa"/>
          <path id="Path_332" data-name="Path 332" d="M194.624,160.783A4.485,4.485,0,0,0,192.6,164.3c0,1.306.907,1.815,2.024,1.168a4.485,4.485,0,0,0,2.024-3.512C196.647,160.666,195.74,160.137,194.624,160.783Z" transform="translate(-127.03 -91.708)" fill="#e66435"/>
          <path id="Path_333" data-name="Path 333" d="M195.138,163.325a.359.359,0,0,1-.183-.046.444.444,0,0,1-.2-.4,1.175,1.175,0,0,1,.535-.927h0a.45.45,0,0,1,.45,0,.444.444,0,0,1,.2.4,1.175,1.175,0,0,1-.535.927A.541.541,0,0,1,195.138,163.325Z" transform="translate(-127.78 -92.184)" fill="#fff"/>
          <path id="Path_334" data-name="Path 334" d="M195.909,164.26a.705.705,0,0,0-.718.052l-.294.17a1.958,1.958,0,0,0-.907,1.58v.209a1.142,1.142,0,0,0,1.116-.118,3.264,3.264,0,0,0,1.116-1.175v-.052A.725.725,0,0,0,195.909,164.26Z" transform="translate(-127.513 -92.992)" fill="#fff"/>
          <path id="Path_335" data-name="Path 335" d="M202.258,154.191l13.872-8.016c.561-.32,1.018-.078,1.018.555a2.2,2.2,0,0,1-1.018,1.723l-13.872,8c-.561.326-1.018.078-1.018-.548A2.206,2.206,0,0,1,202.258,154.191Z" transform="translate(-130.099 -86.639)" fill="#e0e0e0"/>
          <path id="Path_336" data-name="Path 336" d="M234.7,137.077l8.61-5.013c.561-.326,1.012-.078,1.018.548a2.22,2.22,0,0,1-1.018,1.723l-8.61,5.02c-.561.32-1.018.078-1.018-.555a2.22,2.22,0,0,1,1.018-1.723Z" transform="translate(-141.474 -81.679)" fill="#e0e0e0"/>
          <path id="Path_337" data-name="Path 337" d="M259.1,123.89l5.94-3.447c.561-.326,1.018-.078,1.018.548a2.206,2.206,0,0,1-1.018,1.723l-5.94,3.453c-.561.32-1.018.078-1.018-.548A2.22,2.22,0,0,1,259.1,123.89Z" transform="translate(-150.03 -77.599)" fill="#e0e0e0"/>
          <path id="Path_338" data-name="Path 338" d="M229.548,145.659a.248.248,0,0,1-.248-.248v-3.062a.248.248,0,0,1,.49,0v3.062A.248.248,0,0,1,229.548,145.659Z" transform="translate(-139.899 -85.26)" fill="#263238"/>
          <path id="Path_339" data-name="Path 339" d="M253.918,131.589a.248.248,0,0,1-.248-.248v-3.062a.248.248,0,0,1,.49,0v3.062A.248.248,0,0,1,253.918,131.589Z" transform="translate(-148.45 -80.323)" fill="#263238"/>
          <path id="Path_340" data-name="Path 340" d="M274.226,119.82a.248.248,0,0,1-.248-.242v-3.062a.248.248,0,1,1,.49,0v3.062A.248.248,0,0,1,274.226,119.82Z" transform="translate(-155.575 -76.167)" fill="#263238"/>
          <path id="Path_341" data-name="Path 341" d="M281.049,113.8v-.561c0-.653-.392-.94-.875-.653h0a2.1,2.1,0,0,0-.868,1.665v.529a2,2,0,0,1-.294.986h0a.516.516,0,0,0-.072.255h0c0,.163.1.235.215.17l2.043-1.175a.542.542,0,0,0,.215-.424h0a.215.215,0,0,0-.065-.17h0a.6.6,0,0,1-.3-.62Z" transform="translate(-157.474 -74.848)" fill="#e66435"/>
          <path id="Path_342" data-name="Path 342" d="M281.032,117.1a1.012,1.012,0,0,1-.424.8c-.228.131-.418,0-.418-.32Z" transform="translate(-157.908 -76.47)" fill="#e66435"/>
          <path id="Path_343" data-name="Path 343" d="M287.654,109.847a.424.424,0,0,1-.2-.052.5.5,0,0,1-.222-.457,1.306,1.306,0,0,1,.6-1.044h0a.516.516,0,0,1,.509-.039.5.5,0,0,1,.222.457,1.306,1.306,0,0,1-.6,1.044A.652.652,0,0,1,287.654,109.847Z" transform="translate(-160.352 -73.153)" fill="#e66435"/>
          <path id="Path_344" data-name="Path 344" d="M288.521,110.957a.79.79,0,0,0-.8.065l-.333.189a2.246,2.246,0,0,0-1.025,1.782v.235a1.306,1.306,0,0,0,1.26-.131,3.735,3.735,0,0,0,1.26-1.306v-.059A.836.836,0,0,0,288.521,110.957Z" transform="translate(-160.051 -74.288)" fill="#e66435"/>
          <path id="Path_345" data-name="Path 345" d="M290.133,107.522a.358.358,0,0,1-.2-.052.489.489,0,0,1-.222-.457,1.306,1.306,0,0,1,.6-1.044h0a.45.45,0,0,1,.725.424,1.306,1.306,0,0,1-.6,1.038A.568.568,0,0,1,290.133,107.522Z" transform="translate(-161.213 -72.342)" fill="#e66435"/>
          <path id="Path_346" data-name="Path 346" d="M291.1,108.6a.8.8,0,0,0-.809.059l-.326.2a2.109,2.109,0,0,0-.842.992.744.744,0,0,1,.712,0,.829.829,0,0,1,.359.757v.144a3.623,3.623,0,0,0,1.266-1.306v-.059A.829.829,0,0,0,291.1,108.6Z" transform="translate(-161.009 -73.259)" fill="#e66435"/>
          <path id="Path_347" data-name="Path 347" d="M297.443,102.12a3.675,3.675,0,0,0-1.665,2.885,1.26,1.26,0,0,0,.372.986l-.209.986c0,.124.059.176.137.085l.751-.875a1.737,1.737,0,0,0,.614-.215,3.682,3.682,0,0,0,1.658-2.885C299.1,102.022,298.357,101.591,297.443,102.12Z" transform="translate(-163.32 -70.962)" fill="#e66435"/>
          <path id="Path_348" data-name="Path 348" d="M309.99,95.041a.92.92,0,0,1,.411-.144.555.555,0,0,1,.333.059.548.548,0,0,1,.222.261,1.025,1.025,0,0,1,.085.45,1.6,1.6,0,0,1-.046.4,3.41,3.41,0,0,1-.117.366c-.052.111-.1.222-.163.326s-.111.2-.163.3a3.136,3.136,0,0,0-.144.3,1.271,1.271,0,0,0-.092.294,1.026,1.026,0,0,1-.033.137.182.182,0,0,1-.072.085l-.47.274a.059.059,0,0,1-.078,0,.137.137,0,0,1-.033-.1,1.471,1.471,0,0,1,.052-.379,3.463,3.463,0,0,1,.131-.366c.052-.111.111-.228.17-.333s.118-.209.17-.307a2.065,2.065,0,0,0,.131-.274.653.653,0,0,0,.052-.255c0-.118,0-.189-.085-.222s-.144,0-.261.052a.739.739,0,0,0-.255.228,1.123,1.123,0,0,0-.111.242.881.881,0,0,1-.059.209.261.261,0,0,1-.1.144l-.477.274a.052.052,0,0,1-.065,0,.111.111,0,0,1,0-.078A2.108,2.108,0,0,1,309,96.5a3.185,3.185,0,0,1,.215-.548,2.932,2.932,0,0,1,.339-.516A1.611,1.611,0,0,1,309.99,95.041Zm.339,3.917a.319.319,0,0,1-.033.131.214.214,0,0,1-.072.091l-.5.281a.052.052,0,0,1-.072,0,.137.137,0,0,1-.033-.1v-.607a.32.32,0,0,1,.033-.131.176.176,0,0,1,.072-.091l.5-.287a.059.059,0,0,1,.072,0,.137.137,0,0,1,.033.1Z" transform="translate(-167.883 -68.531)" fill="#e66435"/>
          <path id="Path_349" data-name="Path 349" d="M132.19,184.039v27.352c0,.9.653,1.266,1.417.816l97.267-56.18a3.133,3.133,0,0,0,1.41-2.448V126.233c0-.9-.653-1.266-1.41-.816l-97.267,56.173A3.12,3.12,0,0,0,132.19,184.039Z" transform="translate(-106.12 -79.536)" fill="#e66435"/>
          <path id="Path_350" data-name="Path 350" d="M132.19,184.039v27.352c0,.9.653,1.266,1.417.816l97.267-56.18a3.133,3.133,0,0,0,1.41-2.448V126.233c0-.9-.653-1.266-1.41-.816l-97.267,56.173A3.12,3.12,0,0,0,132.19,184.039Z" transform="translate(-106.12 -79.536)" fill="#fff" opacity="0.7"/>
          <path id="Path_351" data-name="Path 351" d="M141.557,221.034a11.742,11.742,0,0,0-5.307,9.191c0,3.382,2.376,4.752,5.307,3.062a11.7,11.7,0,0,0,5.3-9.191C146.851,220.708,144.482,219.343,141.557,221.034Z" transform="translate(-107.26 -112.724)" fill="#e66435"/>
          <path id="Path_352" data-name="Path 352" d="M142.907,227.649a.907.907,0,0,1-.47-.124,1.149,1.149,0,0,1-.509-1.064,3.035,3.035,0,0,1,1.39-2.415h0a1.044,1.044,0,0,1,1.691.973,3.042,3.042,0,0,1-1.4,2.415,1.417,1.417,0,0,1-.705.215Z" transform="translate(-109.242 -113.919)" fill="#fff"/>
          <path id="Path_353" data-name="Path 353" d="M144.917,230.128a1.828,1.828,0,0,0-1.867.144l-.77.444a5.222,5.222,0,0,0-2.389,4.132v.548a2.966,2.966,0,0,0,2.931-.313,8.486,8.486,0,0,0,2.925-3.068v-.131A1.958,1.958,0,0,0,144.917,230.128Z" transform="translate(-108.532 -116.075)" fill="#fff"/>
          <path id="Path_354" data-name="Path 354" d="M157.578,216.18l11.235-6.482c.561-.326,1.018-.117,1.018.457a2.141,2.141,0,0,1-1.018,1.632l-11.235,6.482c-.561.326-1.018.124-1.018-.457A2.141,2.141,0,0,1,157.578,216.18Z" transform="translate(-114.397 -108.928)" fill="#455a64"/>
          <path id="Path_355" data-name="Path 355" d="M157.161,224.293l6.606-3.812c.326-.2.594-.072.594.268a1.266,1.266,0,0,1-.594.96l-6.606,3.812c-.333.189-.6.072-.6-.268A1.247,1.247,0,0,1,157.161,224.293Z" transform="translate(-114.387 -112.722)" fill="#455a64"/>
          <path id="Path_356" data-name="Path 356" d="M133.607,224.973l97.267-56.141a3.133,3.133,0,0,0,1.41-2.448V161.9L132.19,219.666v4.491C132.19,225.058,132.823,225.424,133.607,224.973Z" transform="translate(-106.12 -92.38)" fill="#f5f5f5"/>
          <path id="Path_357" data-name="Path 357" d="M172.681,232.4a.235.235,0,0,1-.242-.242V229.1a.242.242,0,0,1,.242-.248.248.248,0,0,1,.248.248v3.062a.242.242,0,0,1-.248.242Z" transform="translate(-119.947 -115.686)" fill="#ebebeb"/>
          <path id="Path_358" data-name="Path 358" d="M154.1,237.725l8.6-5.02c.561-.32,1.018-.078,1.018.555a2.219,2.219,0,0,1-1.018,1.723l-8.6,5.046c-.561.326-1.018.078-1.018-.548a2.219,2.219,0,0,1,1.018-1.756Z" transform="translate(-113.17 -117.004)" fill="#e0e0e0"/>
          <path id="Path_359" data-name="Path 359" d="M196.491,218.571a.241.241,0,0,1-.242-.248v-3.062a.241.241,0,0,1,.242-.242.248.248,0,0,1,.248.242v3.062A.248.248,0,0,1,196.491,218.571Z" transform="translate(-128.302 -110.833)" fill="#ebebeb"/>
          <path id="Path_360" data-name="Path 360" d="M177.908,223.9l8.6-4.981c.561-.326,1.018-.078,1.018.548a2.206,2.206,0,0,1-1.018,1.723l-8.6,5.02c-.561.326-1.018.078-1.018-.548a2.219,2.219,0,0,1,1.018-1.763Z" transform="translate(-121.531 -112.166)" fill="#e0e0e0"/>
          <path id="Path_361" data-name="Path 361" d="M220.3,204.731a.248.248,0,0,1-.248-.242v-3.062a.248.248,0,0,1,.248-.248.242.242,0,0,1,.242.248v3.062A.242.242,0,0,1,220.3,204.731Z" transform="translate(-136.653 -105.977)" fill="#ebebeb"/>
          <path id="Path_362" data-name="Path 362" d="M201.718,210.055l8.6-5.02c.561-.32,1.018-.078,1.018.555a2.219,2.219,0,0,1-1.018,1.723l-8.6,5.014c-.561.326-1.018.078-1.018-.548A2.219,2.219,0,0,1,201.718,210.055Z" transform="translate(-129.893 -107.292)" fill="#e0e0e0"/>
          <path id="Path_363" data-name="Path 363" d="M244.108,190.9a.248.248,0,0,1-.248-.248v-3.062a.241.241,0,0,1,.248-.242.235.235,0,0,1,.242.242v3.062a.242.242,0,0,1-.242.248Z" transform="translate(-145.008 -101.124)" fill="#ebebeb"/>
          <path id="Path_364" data-name="Path 364" d="M225.528,196.257l8.6-5.013c.561-.326,1.018-.078,1.018.548a2.206,2.206,0,0,1-1.018,1.723l-8.6,5.02c-.568.326-1.018.078-1.018-.548a2.2,2.2,0,0,1,1.018-1.73Z" transform="translate(-138.254 -102.451)" fill="#e0e0e0"/>
          <path id="Path_365" data-name="Path 365" d="M249.332,182.385l8.61-5.02c.561-.32,1.018-.078,1.018.555a2.22,2.22,0,0,1-1.018,1.723l-8.61,5.013c-.561.326-1.012.078-1.012-.548A2.213,2.213,0,0,1,249.332,182.385Z" transform="translate(-146.615 -97.581)" fill="#e0e0e0"/>
        </g>
      </g>
      <g id="freepik--Post--inject-2" transform="translate(129.82 127.009)">
        <g id="freepik--post--inject-2-2" data-name="freepik--post--inject-2">
          <path id="Path_366" data-name="Path 366" d="M219.133,344.444a44.508,44.508,0,0,1-21.751-31.909l-4.628-30.727a44.475,44.475,0,0,0-17.965-29.454L168.75,248v3.447l3.264,2.363a44.508,44.508,0,0,1,17.952,29.376l4.72,30.943a44.514,44.514,0,0,0,21.738,31.83l2.7,1.554v-3.062Z" transform="translate(-168.75 -205.124)" fill="#ebebeb"/>
          <path id="Path_367" data-name="Path 367" d="M271.624,246.862,267,216.135a44.482,44.482,0,0,0-17.959-29.454L243,182.32,168.75,225.2l6.038,4.361a44.475,44.475,0,0,1,17.965,29.454l4.628,30.727a44.508,44.508,0,0,0,21.751,31.909h0l74.249-42.869h0a44.488,44.488,0,0,1-21.758-31.915Z" transform="translate(-168.75 -182.32)" fill="#fafafa"/>
          <path id="Path_368" data-name="Path 368" d="M242.96,183.1l5.692,4.113a44.123,44.123,0,0,1,17.7,29.023l4.622,30.727a44.912,44.912,0,0,0,21.111,31.8l-72.957,42.119a43.633,43.633,0,0,1-21.111-31.249L193.4,258.906a45.441,45.441,0,0,0-18.226-29.892l-5.222-3.767L242.96,183.1m.039-.777L168.75,225.2l6.038,4.361a44.475,44.475,0,0,1,17.965,29.454l4.628,30.727a44.508,44.508,0,0,0,21.751,31.909h0l74.249-42.869a44.488,44.488,0,0,1-21.758-31.909L267,216.141a44.482,44.482,0,0,0-17.958-29.461L243,182.32Z" transform="translate(-168.75 -182.32)" fill="#e0e0e0"/>
          <path id="Path_369" data-name="Path 369" d="M245.93,372.939l74.249-42.869v3.062L245.93,376Z" transform="translate(-195.547 -233.619)" fill="#f5f5f5"/>
          <path id="Path_370" data-name="Path 370" d="M188.859,244.144c-2.611,1.1-2.866,3.362-.62,5.059A9.753,9.753,0,0,0,197,250.267c2.611-1.1,2.872-3.362.653-5.053a9.733,9.733,0,0,0-8.793-1.071Z" transform="translate(-174.987 -203.579)" fill="#e66435"/>
          <path id="Path_371" data-name="Path 371" d="M193.016,247.622a2.981,2.981,0,0,1-.653,0,2.814,2.814,0,0,1-1.351-.483c-.6-.45-.535-1.038.163-1.306h0a2.865,2.865,0,0,1,1.436-.15,2.911,2.911,0,0,1,1.351.49c.6.45.529,1.038-.163,1.306A2.349,2.349,0,0,1,193.016,247.622Z" transform="translate(-176.337 -204.308)" fill="#fff"/>
          <path id="Path_372" data-name="Path 372" d="M197.857,248.553a4.57,4.57,0,0,0-2.272.235l-.653.287c-1.182.509-1.306,1.508-.274,2.278l.366.274a8.283,8.283,0,0,0,3.688-.294c1.123-.431,1.808-.927,1.906-1.638l-.5-.333A4.779,4.779,0,0,0,197.857,248.553Z" transform="translate(-177.502 -205.298)" fill="#fff"/>
          <path id="Path_373" data-name="Path 373" d="M208.147,230.218l21.8-12.592a2.67,2.67,0,0,1,2.735.144l.2.157a1.058,1.058,0,0,1-.15,1.86L210.947,232.4a2.539,2.539,0,0,1-2.663-.235c-.078-.059-.157-.118-.228-.183a.979.979,0,0,1,.091-1.769Z" transform="translate(-182.218 -194.471)" fill="#455a64"/>
          <path id="Path_374" data-name="Path 374" d="M214.929,240.737l10.915-6.3a.581.581,0,0,0,.111-.973l-.2-.189a1.136,1.136,0,0,0-1.306-.15L213.6,239.471a.588.588,0,0,0-.111.979l.137.13a1.149,1.149,0,0,0,1.306.157Z" transform="translate(-184.208 -199.911)" fill="#455a64"/>
          <path id="Path_375" data-name="Path 375" d="M204.471,244.994l58.83-33.978a1.815,1.815,0,0,1,2.357.516l.124.176a1.521,1.521,0,0,1-.522,2.18l-58.863,34a1.743,1.743,0,0,1-2.3-.555l-.124-.189a1.482,1.482,0,0,1,.5-2.154Z" transform="translate(-180.886 -192.203)" opacity="0.2"/>
          <path id="Path_376" data-name="Path 376" d="M209.882,253.877l58.9-33.991a1.515,1.515,0,0,1,2.148.653l.091.189a1.841,1.841,0,0,1-.744,2.3l-58.909,34.037a1.443,1.443,0,0,1-2.069-.653l-.1-.209A1.782,1.782,0,0,1,209.882,253.877Z" transform="translate(-182.726 -195.288)" opacity="0.2"/>
          <path id="Path_377" data-name="Path 377" d="M213.9,263.51l58.948-34.03a1.26,1.26,0,0,1,1.913.738l.078.294a2.2,2.2,0,0,1-.979,2.389l-58.922,34.057a1.195,1.195,0,0,1-1.834-.764,1.14,1.14,0,0,0-.091-.313A2.148,2.148,0,0,1,213.9,263.51Z" transform="translate(-184.089 -198.622)" opacity="0.2"/>
          <path id="Path_378" data-name="Path 378" d="M216.372,281.607l34.265-19.786a1.038,1.038,0,0,1,1.658.8l.072.457a2.566,2.566,0,0,1-1.169,2.428l-34.265,19.806a1.038,1.038,0,0,1-1.658-.8,3.085,3.085,0,0,0-.072-.483A2.611,2.611,0,0,1,216.372,281.607Z" transform="translate(-184.875 -209.851)" opacity="0.2"/>
          <path id="Path_379" data-name="Path 379" d="M288.219,298.69,232.15,331.069a3.61,3.61,0,0,1-4.733-1.018q-5.32-8.147-7.1-20.3l-2.239-14.877a5.164,5.164,0,0,1,2.337-4.863l56.141-32.431a2.076,2.076,0,0,1,3.316,1.6l2.239,14.884a46.819,46.819,0,0,0,7.063,20.322,2.97,2.97,0,0,1-.953,4.3Z" transform="translate(-185.867 -208.316)" fill="#e66435"/>
          <path id="Path_380" data-name="Path 380" d="M288.219,298.69,232.15,331.069a3.61,3.61,0,0,1-4.733-1.018q-5.32-8.147-7.1-20.3l-2.239-14.877a5.164,5.164,0,0,1,2.337-4.863l56.141-32.431a2.076,2.076,0,0,1,3.316,1.6l2.239,14.884a46.819,46.819,0,0,0,7.063,20.322,2.97,2.97,0,0,1-.953,4.3Z" transform="translate(-185.867 -208.316)" fill="#fff" opacity="0.7"/>
          <path id="Path_381" data-name="Path 381" d="M235.181,343.41l56.069-32.379a2.97,2.97,0,0,0,.953-4.3,43.274,43.274,0,0,1-4.452-9.08l-17.4-4.909-7.723,17.142,8.388,6.743L241.749,301.22,226.78,335.25a41.086,41.086,0,0,0,3.669,7.148A3.61,3.61,0,0,0,235.181,343.41Z" transform="translate(-188.898 -220.658)" fill="#e66435"/>
          <path id="Path_382" data-name="Path 382" d="M274.012,286.9c2.063-1.188,4.028-.2,4.393,2.206a6.894,6.894,0,0,1-3.081,6.528c-2.063,1.195-4.028.2-4.387-2.206A6.887,6.887,0,0,1,274.012,286.9Z" transform="translate(-204.215 -218.456)" fill="#e66435"/>
          <path id="Path_383" data-name="Path 383" d="M300.668,349.261a3.261,3.261,0,0,1-.561,0,2.415,2.415,0,0,1-1.136-.411c-.5-.372-.437-.862.137-1.11h0a2.389,2.389,0,0,1,1.195-.124,2.487,2.487,0,0,1,1.136.4c.5.379.437.868-.137,1.116A1.881,1.881,0,0,1,300.668,349.261Z" transform="translate(-213.846 -239.702)" fill="#e66435"/>
          <path id="Path_384" data-name="Path 384" d="M304.715,350.056a3.766,3.766,0,0,0-1.9.2l-.568.235c-.986.424-1.09,1.26-.228,1.906l.3.228a6.985,6.985,0,0,0,3.088-.248c.934-.359,1.508-.777,1.593-1.371l-.424-.274A3.916,3.916,0,0,0,304.715,350.056Z" transform="translate(-214.818 -240.543)" fill="#e66435"/>
          <path id="Path_385" data-name="Path 385" d="M306.65,346.31l-2.1.1-.568.49a.2.2,0,0,0,0,.313l.568.45,2.135-.085Zm-2.246.888a.155.155,0,1,1,.157-.157.157.157,0,0,1-.157.157Z" transform="translate(-215.676 -239.258)" fill="#e66435"/>
          <path id="Path_386" data-name="Path 386" d="M323.578,340.562c0,.32-.411.587-.653.718a3.97,3.97,0,0,1-1.475.477C320.954,341.175,321.907,340.164,323.578,340.562Z" transform="translate(-221.722 -237.23)" fill="#e66435"/>
          <path id="Path_387" data-name="Path 387" d="M321.109,336.774a5.25,5.25,0,0,0-5.653-.77,2.522,2.522,0,0,0-.47,4.3,5.8,5.8,0,0,0,6.032.32C322.7,339.64,322.656,338.04,321.109,336.774Zm-2.546-.3a.777.777,0,0,1,.875.137.392.392,0,0,1-.078.653.8.8,0,0,1-.907-.1.424.424,0,0,1,.111-.692Zm-3.094,2.376a.424.424,0,0,1,.111-.7.764.764,0,0,1,.868.137.392.392,0,0,1-.072.653.8.8,0,0,1-.94-.065Zm5.118.953a4.83,4.83,0,0,1-2.35.568,4.752,4.752,0,0,1-2.063-.437l4.387-2.474a1.822,1.822,0,0,1,.823,1.371,1.4,1.4,0,0,1-.829,1Z" transform="translate(-219.174 -235.499)" fill="#e66435"/>
          <path id="Path_388" data-name="Path 388" d="M336.04,327.85a2.612,2.612,0,0,0-.581-.653,3.682,3.682,0,0,0-3.956-.542,1.763,1.763,0,0,0-.326,3.009,2.972,2.972,0,0,0,.437.287h0c1.958,1.116,5.516,1.253,5.516,1.253A6.254,6.254,0,0,0,336.04,327.85Zm-1.7,1.234a1.958,1.958,0,0,1-2.017-.1.849.849,0,0,1,.157-1.443,1.763,1.763,0,0,1,1.893.261c.522.424.542.96-.026,1.286Z" transform="translate(-224.901 -232.314)" fill="#e66435"/>
        </g>
      </g>
    </g>
    <g transform="matrix(1, 0, 0, 1, 727, 107.81)" filter="url(#Rectangle_270)">
      <rect id="Rectangle_270-2" data-name="Rectangle 270" width="238" height="56" rx="28" transform="translate(119 82.19)" fill="#023c3e" opacity="0.96"/>
    </g>
    <text id="_Light_Theme_1._Headline_H3" data-name="🌕 Light Theme/1. Headline/H3" transform="translate(862 226)" fill="#f7f7f7" font-size="24" font-family="Nunito-SemiBold, Nunito" font-weight="600"><tspan x="0" y="0">Admin Dashboard</tspan></text>
  </g>
</svg>
